<?xml version="1.0" encoding="iso-8859-1"?>
<!-- Generator: Adobe Illustrator 19.1.0, SVG Export Plug-In . SVG Version: 6.00 Build 0)  -->
<svg version="1.1" id="&#xB808;&#xC774;&#xC5B4;_1" xmlns="http://www.w3.org/2000/svg" xmlns:xlink="http://www.w3.org/1999/xlink"
	 x="0px" y="0px" viewBox="0 0 605.373 159.917" style="enable-background:new 0 0 605.373 159.917;" xml:space="preserve">
<g>
	
		<polygon style="fill:#99CC66;stroke:#99CC66;stroke-width:8;stroke-linecap:round;stroke-linejoin:round;stroke-miterlimit:10;" points="
		601.373,6 565.127,42.214 528.881,6 	"/>
	
		<polyline style="fill:#982068;stroke:#982068;stroke-width:8;stroke-linecap:round;stroke-linejoin:round;stroke-miterlimit:10;" points="
		204.992,6 168.746,42.214 132.5,6 204.992,6 188.498,22.479 	"/>
	
		<polygon style="fill:#99CC66;stroke:#99CC66;stroke-width:8;stroke-linecap:round;stroke-linejoin:round;stroke-miterlimit:10;" points="
		463.545,6 427.299,42.214 391.053,6 	"/>
	<g>
		
			<rect x="495.088" y="6" style="fill:#99CC66;stroke:#99CC66;stroke-width:12;stroke-linecap:round;stroke-linejoin:round;stroke-miterlimit:10;" width="11.947" height="105.308"/>
	</g>
	<g>
		<path style="fill:#982068;stroke:#982068;stroke-width:12;stroke-linecap:round;stroke-linejoin:round;stroke-miterlimit:10;" d="
			M6,90.587l8.568-5.141c6.031,11.104,13,16.656,20.906,16.656c3.381,0,6.557-0.789,9.527-2.365c2.971-1.576,5.233-3.689,6.787-6.34
			c1.553-2.65,2.33-5.461,2.33-8.432c0-3.381-1.143-6.694-3.428-9.94c-3.152-4.478-8.91-9.87-17.273-16.177
			c-8.408-6.351-13.641-10.943-15.697-13.778c-3.564-4.752-5.348-9.893-5.348-15.423c0-4.387,1.053-8.385,3.154-11.996
			c2.102-3.609,5.061-6.454,8.877-8.534C28.219,7.04,32.367,6,36.846,6c4.752,0,9.195,1.177,13.332,3.53
			c4.135,2.353,8.51,6.684,13.127,12.99l-8.227,6.236c-3.793-5.025-7.025-8.339-9.699-9.938c-2.672-1.6-5.586-2.399-8.738-2.399
			c-4.068,0-7.393,1.233-9.975,3.702c-2.582,2.467-3.873,5.507-3.873,9.116c0,2.193,0.457,4.319,1.371,6.375
			c0.914,2.056,2.582,4.296,5.004,6.718c1.326,1.279,5.666,4.638,13.023,10.076c8.729,6.443,14.715,12.179,17.961,17.205
			c3.244,5.027,4.867,10.078,4.867,15.15c0,7.31-2.777,13.664-8.33,19.055c-5.553,5.395-12.305,8.09-20.256,8.09
			c-6.123,0-11.676-1.635-16.656-4.902C14.797,103.738,10.203,98.265,6,90.587z"/>
	</g>
	<path style="fill:#99CC66;stroke:#99CC66;stroke-width:12;stroke-linecap:round;stroke-linejoin:round;stroke-miterlimit:10;" d="
		M220.908,8.743h20.188c11.254,0,18.879,0.46,22.875,1.381c6.016,1.379,10.908,4.334,14.676,8.864
		c3.766,4.529,5.648,10.106,5.648,16.729c0,5.52-1.297,10.372-3.891,14.556c-2.598,4.187-6.307,7.349-11.129,9.486
		c-4.822,2.138-11.482,3.231-19.98,3.276l36.447,47.059h-12.529l-36.449-47.059h-5.727v47.059h-10.129V8.743z M231.037,18.665v34.45
		l17.459,0.139c6.764,0,11.766-0.642,15.01-1.93c3.242-1.285,5.773-3.342,7.592-6.166c1.816-2.825,2.727-5.983,2.727-9.475
		c0-3.398-0.922-6.487-2.762-9.267c-1.84-2.778-4.254-4.765-7.246-5.96c-2.99-1.193-7.961-1.791-14.906-1.791H231.037z"/>
	<path style="fill:#99CC66;stroke:#99CC66;stroke-width:12;stroke-linecap:round;stroke-linejoin:round;stroke-miterlimit:10;" d="
		M304.287,8.743h58.084v9.922h-47.955v31.763h47.541v9.922h-47.541v39.824h47.541v9.922h-57.67V8.743z"/>
	
		<polygon style="fill:#99CC66;stroke:#99CC66;stroke-width:8;stroke-linecap:round;stroke-linejoin:round;stroke-miterlimit:10;" points="
		528.881,111.308 565.127,75.094 601.373,111.308 	"/>
	
		<polyline style="fill:#982068;stroke:#982068;stroke-width:8;stroke-linecap:round;stroke-linejoin:round;stroke-miterlimit:10;" points="
		80.131,28.726 80.131,42.214 116.377,6 80.131,6 80.131,28.726 	"/>
	
		<rect x="162.746" y="99.132" style="fill:#982068;stroke:#982068;stroke-width:8;stroke-linecap:round;stroke-linejoin:round;stroke-miterlimit:10;" width="12" height="12"/>
	
		<rect x="385.055" y="99.132" style="fill:#99CC66;stroke:#99CC66;stroke-width:8;stroke-linecap:round;stroke-linejoin:round;stroke-miterlimit:10;" width="11.998" height="12"/>
	
		<rect x="457.547" y="99.132" style="fill:#99CC66;stroke:#99CC66;stroke-width:8;stroke-linecap:round;stroke-linejoin:round;stroke-miterlimit:10;" width="11.998" height="12"/>
	
		<polygon style="fill:#982068;stroke:#982068;stroke-width:8;stroke-linecap:round;stroke-linejoin:round;stroke-miterlimit:10;" points="
		131.389,110.679 80.152,110.656 80.131,59.419 	"/>
</g>
<g>
	<path style="fill:#666666;stroke:#666666;stroke-miterlimit:10;" d="M92.38,155.451l1.594-0.955
		c1.119,2.063,2.414,3.094,3.881,3.094c0.629,0,1.219-0.146,1.769-0.439c0.553-0.293,0.973-0.686,1.26-1.178
		c0.289-0.492,0.434-1.015,0.434-1.566c0-0.628-0.213-1.244-0.637-1.847c-0.584-0.832-1.654-1.834-3.207-3.007
		c-1.561-1.181-2.531-2.034-2.914-2.561c-0.662-0.884-0.992-1.839-0.992-2.867c0-0.814,0.195-1.558,0.586-2.229
		s0.941-1.2,1.65-1.586c0.709-0.387,1.48-0.58,2.313-0.58c0.885,0,1.711,0.219,2.48,0.657c0.768,0.439,1.582,1.244,2.439,2.418
		l-1.529,1.159c-0.705-0.936-1.307-1.553-1.803-1.85c-0.498-0.299-1.039-0.447-1.625-0.447c-0.756,0-1.375,0.23-1.854,0.688
		c-0.48,0.459-0.721,1.023-0.721,1.694c0,0.407,0.084,0.803,0.254,1.185c0.17,0.383,0.48,0.799,0.93,1.248
		c0.246,0.238,1.053,0.862,2.42,1.873c1.621,1.198,2.734,2.265,3.336,3.199c0.604,0.935,0.904,1.873,0.904,2.816
		c0,1.359-0.516,2.541-1.547,3.543c-1.033,1.003-2.287,1.504-3.766,1.504c-1.139,0-2.17-0.304-3.096-0.912
		C94.015,157.898,93.161,156.879,92.38,155.451z"/>
	<path style="fill:#666666;stroke:#666666;stroke-miterlimit:10;" d="M122.976,140.199h1.906v7.03l7.518-7.03h2.506l-9.017,8.406
		l9.721,10.344h-2.502l-8.225-8.752v8.752h-1.906V140.199z"/>
	<path style="fill:#666666;stroke:#666666;stroke-miterlimit:10;" d="M152.569,140.199h2.146l4.793,7.763l4.723-7.763h2.166
		l-5.938,9.793v8.957h-1.844v-8.957L152.569,140.199z"/>
	<path style="fill:#666666;stroke:#666666;stroke-miterlimit:10;" d="M182.949,140.199h3.738c2.082,0,3.494,0.085,4.234,0.255
		c1.113,0.255,2.02,0.801,2.717,1.638c0.697,0.837,1.045,1.867,1.045,3.091c0,1.021-0.24,1.917-0.721,2.689
		c-0.48,0.773-1.166,1.358-2.061,1.753c-0.893,0.396-2.125,0.598-3.699,0.605l6.746,8.719h-2.307l-6.746-8.719h-1.072v8.719h-1.875
		V140.199z M184.824,142.027v6.375l3.232,0.025c1.252,0,2.18-0.119,2.779-0.357c0.602-0.238,1.07-0.618,1.406-1.142
		c0.336-0.522,0.504-1.107,0.504-1.753c0-0.629-0.17-1.2-0.51-1.715c-0.342-0.515-0.789-0.882-1.342-1.103
		c-0.555-0.222-1.475-0.332-2.76-0.332H184.824z"/>
	<path style="fill:#666666;stroke:#666666;stroke-miterlimit:10;" d="M214.371,140.199h10.734v1.828h-8.859v5.891h8.781v1.828
		h-8.781v7.375h8.781v1.828h-10.656V140.199z"/>
	<path style="fill:#666666;stroke:#666666;stroke-miterlimit:10;" d="M243.148,158.949l2.68-18.75h0.299l7.623,15.391l7.564-15.391
		h0.283l2.691,18.75h-1.822l-1.857-13.391l-6.629,13.391h-0.498l-6.686-13.5l-1.84,13.5H243.148z"/>
	<path style="fill:#666666;stroke:#666666;stroke-miterlimit:10;" d="M283.385,140.199h1.875v18.75h-1.875V140.199z"/>
	<path style="fill:#666666;stroke:#666666;stroke-miterlimit:10;" d="M304.217,140.199h2.191l4.488,7.291l4.508-7.291h2.172
		l-5.592,9.058l5.967,9.692h-2.191l-4.873-7.914l-4.885,7.914h-2.191l5.988-9.684L304.217,140.199z"/>
	<path style="fill:#666666;stroke:#666666;stroke-miterlimit:10;" d="M357.707,155.451l1.592-0.955
		c1.121,2.063,2.414,3.094,3.883,3.094c0.629,0,1.219-0.146,1.77-0.439c0.551-0.293,0.971-0.686,1.26-1.178
		c0.289-0.492,0.434-1.015,0.434-1.566c0-0.628-0.213-1.244-0.637-1.847c-0.586-0.832-1.654-1.834-3.207-3.007
		c-1.561-1.181-2.533-2.034-2.914-2.561c-0.662-0.884-0.992-1.839-0.992-2.867c0-0.814,0.195-1.558,0.586-2.229
		c0.391-0.671,0.941-1.2,1.65-1.586c0.709-0.387,1.48-0.58,2.313-0.58c0.885,0,1.711,0.219,2.479,0.657
		c0.77,0.439,1.582,1.244,2.441,2.418l-1.529,1.159c-0.705-0.936-1.307-1.553-1.803-1.85c-0.498-0.299-1.039-0.447-1.625-0.447
		c-0.756,0-1.375,0.23-1.855,0.688c-0.479,0.459-0.719,1.023-0.719,1.694c0,0.407,0.084,0.803,0.254,1.185
		c0.17,0.383,0.48,0.799,0.93,1.248c0.246,0.238,1.053,0.862,2.42,1.873c1.621,1.198,2.732,2.265,3.336,3.199
		c0.602,0.935,0.904,1.873,0.904,2.816c0,1.359-0.516,2.541-1.549,3.543c-1.031,1.003-2.287,1.504-3.764,1.504
		c-1.139,0-2.17-0.304-3.096-0.912C359.342,157.898,358.488,156.879,357.707,155.451z"/>
	<path style="fill:#666666;stroke:#666666;stroke-miterlimit:10;" d="M386.441,142.027v-1.828h10.25v1.828h-4.172v16.922h-1.906
		v-16.922H386.441z"/>
	<path style="fill:#666666;stroke:#666666;stroke-miterlimit:10;" d="M415.135,140.199h1.875v11.319c0,1.343,0.025,2.18,0.076,2.511
		c0.094,0.739,0.311,1.357,0.65,1.855c0.342,0.497,0.863,0.914,1.57,1.249c0.705,0.336,1.414,0.504,2.129,0.504
		c0.621,0,1.215-0.132,1.785-0.395c0.57-0.264,1.045-0.629,1.428-1.097c0.383-0.468,0.664-1.032,0.842-1.695
		c0.129-0.475,0.191-1.453,0.191-2.932v-11.319h1.875v11.317c0,1.674-0.164,3.026-0.49,4.06c-0.328,1.031-0.982,1.93-1.965,2.695
		c-0.98,0.764-2.17,1.146-3.564,1.146c-1.514,0-2.811-0.361-3.889-1.083c-1.08-0.723-1.803-1.679-2.168-2.868
		c-0.23-0.73-0.346-2.047-0.346-3.95V140.199z"/>
	<path style="fill:#666666;stroke:#666666;stroke-miterlimit:10;" d="M447.82,158.949v-18.75h3.889c2.805,0,4.842,0.226,6.107,0.676
		c1.818,0.637,3.24,1.742,4.266,3.314c1.023,1.571,1.535,3.445,1.535,5.621c0,1.877-0.406,3.53-1.217,4.958
		c-0.813,1.428-1.865,2.481-3.162,3.161c-1.297,0.68-3.113,1.02-5.451,1.02H447.82z M449.617,157.183h2.168
		c2.59,0,4.387-0.161,5.389-0.484c1.41-0.459,2.52-1.285,3.326-2.479c0.809-1.193,1.211-2.653,1.211-4.378
		c0-1.811-0.438-3.357-1.313-4.641s-2.094-2.162-3.656-2.639c-1.174-0.356-3.105-0.535-5.799-0.535h-1.326V157.183z"/>
	<path style="fill:#666666;stroke:#666666;stroke-miterlimit:10;" d="M482.637,140.199h1.875v18.75h-1.875V140.199z"/>
	<path style="fill:#666666;stroke:#666666;stroke-miterlimit:10;" d="M513.379,139.73c2.836,0,5.211,0.947,7.121,2.842
		c1.912,1.895,2.867,4.227,2.867,6.996c0,2.744-0.953,5.071-2.861,6.982c-1.906,1.912-4.231,2.867-6.975,2.867
		c-2.777,0-5.121-0.951-7.033-2.854c-1.91-1.902-2.865-4.205-2.865-6.906c0-1.801,0.436-3.471,1.305-5.008
		c0.871-1.538,2.059-2.742,3.563-3.612C510.002,140.166,511.629,139.73,513.379,139.73z M513.461,141.558
		c-1.385,0-2.697,0.361-3.939,1.083c-1.24,0.723-2.209,1.695-2.906,2.919c-0.697,1.223-1.045,2.586-1.045,4.09
		c0,2.227,0.771,4.105,2.313,5.64c1.543,1.533,3.402,2.3,5.578,2.3c1.453,0,2.799-0.353,4.035-1.058
		c1.236-0.705,2.201-1.669,2.895-2.893c0.691-1.224,1.039-2.583,1.039-4.078c0-1.487-0.348-2.831-1.039-4.033
		c-0.693-1.202-1.668-2.164-2.926-2.887C516.207,141.919,514.873,141.558,513.461,141.558z"/>
</g>
</svg>
